<?xml version="1.0" standalone="no"?>
<!DOCTYPE svg PUBLIC "-//W3C//DTD SVG 20010904//EN"
 "http://www.w3.org/TR/2001/REC-SVG-20010904/DTD/svg10.dtd">
<svg version="1.0" xmlns="http://www.w3.org/2000/svg"
 width="700.000000pt" height="700.000000pt" viewBox="0 0 700.000000 700.000000"
 preserveAspectRatio="xMidYMid meet">
<metadata>
Created by potrace 1.11, written by Peter Selinger 2001-2013
</metadata>
<g transform="translate(0.000000,700.000000) scale(0.100000,-0.100000)"
fill="#000000" stroke="none">
<path d="M2500 6883 c-117 -19 -249 -61 -326 -104 -17 -9 -42 -23 -55 -31
-125 -70 -273 -225 -350 -364 l-33 -61 -94 -27 c-506 -142 -871 -616 -874
-1135 -1 -132 6 -189 38 -319 14 -57 24 -105 22 -106 -2 -1 -42 -28 -89 -59
-230 -153 -423 -393 -530 -660 -23 -56 -66 -204 -74 -252 -19 -115 -23 -153
-23 -265 1 -442 202 -853 551 -1124 l54 -42 -39 -68 c-42 -75 -102 -243 -113
-319 -3 -27 -8 -59 -11 -70 -7 -33 -5 -216 2 -267 71 -502 473 -894 970 -946
34 -4 96 -7 139 -8 l79 -1 32 -55 c18 -30 36 -59 41 -65 4 -5 24 -30 43 -55
46 -58 132 -139 200 -188 95 -68 258 -141 352 -157 18 -3 51 -10 73 -15 95
-21 293 -6 429 34 372 109 663 471 691 861 2 22 4 319 4 661 l1 621 376 -1
c241 -1 378 3 382 9 4 6 7 55 7 110 l0 100 -380 0 -380 0 -3 218 -2 217 27 1
c16 0 409 1 876 1 l847 1 0 109 0 108 -32 0 c-18 1 -412 1 -875 1 l-843 0 0
329 0 330 110 0 110 0 0 109 0 108 -110 -1 -110 -1 2 220 3 220 653 0 c573 0
652 2 653 15 3 69 1 188 -3 196 -4 5 -273 9 -657 8 l-651 -1 -1 621 c0 678 0
675 -24 790 -79 381 -397 689 -785 761 -42 8 -264 14 -300 8z m279 -228 c140
-29 264 -94 367 -192 105 -101 156 -180 206 -325 l33 -93 0 -2535 c0 -2708 3
-2556 -48 -2690 -108 -288 -390 -485 -698 -488 -303 -3 -569 160 -699 430 -21
43 -43 91 -48 108 -6 16 -17 30 -24 29 -7 0 -56 -6 -108 -13 -275 -36 -541 52
-729 242 -90 91 -114 123 -165 222 -120 230 -131 487 -33 730 97 240 325 445
567 510 71 19 200 38 221 33 19 -5 20 0 17 108 l-3 114 -45 -3 c-258 -16 -500
-116 -680 -281 -31 -28 -59 -47 -66 -43 -123 73 -307 288 -392 457 -33 67 -87
221 -96 275 -3 19 -10 57 -15 85 -12 62 -11 279 1 343 4 26 11 61 14 77 10 56
65 210 101 280 60 118 124 206 223 306 111 112 189 169 320 235 52 26 100 51
106 56 9 6 4 24 -16 66 -83 173 -120 388 -97 567 18 146 87 322 173 442 96
134 245 259 386 322 108 49 106 49 97 -6 -11 -69 -3 -247 15 -323 27 -113 93
-280 112 -280 12 0 184 102 184 109 0 4 -4 11 -9 16 -15 17 -59 137 -74 203
-14 59 -16 257 -4 307 58 236 181 403 385 522 51 30 169 72 232 83 77 13 215
11 289 -5z"/>
<path d="M2458 6425 c-95 -32 -154 -69 -223 -139 -91 -93 -166 -267 -153 -356
3 -24 5 -24 101 -25 55 0 102 2 106 5 3 3 12 31 18 64 31 151 166 258 326 257
152 0 292 -122 313 -271 4 -25 10 -47 14 -50 7 -4 154 -5 198 -1 30 3 4 137
-46 241 -68 140 -210 252 -366 289 -77 19 -210 12 -288 -14z"/>
<path d="M2515 4814 l0 -109 46 -6 c142 -21 259 -139 278 -283 10 -71 -14
-166 -58 -229 -50 -74 -158 -137 -232 -137 -33 0 -31 7 -33 -122 l-1 -98 26 0
c59 0 149 24 219 58 143 70 260 223 290 379 16 82 8 213 -18 286 -72 200 -249
342 -455 363 l-62 6 0 -108z"/>
<path d="M1556 4204 c-193 -46 -356 -213 -402 -410 -37 -160 8 -345 115 -474
l29 -34 77 75 77 76 -36 55 c-64 101 -73 213 -24 318 85 184 316 245 485 128
l44 -30 77 76 77 75 -25 22 c-48 42 -128 88 -191 110 -80 27 -219 33 -303 13z"/>
<path d="M2433 2618 c-266 -41 -469 -281 -462 -548 5 -174 73 -310 212 -424
41 -33 133 -82 174 -91 72 -17 92 -20 123 -20 l35 0 0 108 c1 101 0 107 -20
107 -35 0 -116 29 -159 56 -57 37 -94 84 -124 156 -47 119 -13 269 81 355 47
42 131 83 172 83 17 0 35 4 40 8 6 4 11 48 10 105 0 114 -3 118 -82 105z"/>
<path d="M986 1713 c8 -136 58 -264 142 -369 102 -126 255 -218 397 -238 22
-4 57 -9 78 -12 l37 -5 0 113 0 113 -43 3 c-95 6 -210 64 -281 142 -57 64
-101 163 -108 245 l-4 40 -110 3 -111 3 3 -38z"/>
<path d="M2961 1090 c-5 -3 -10 -24 -14 -47 -17 -131 -143 -256 -274 -271 -24
-2 -44 -7 -44 -11 -1 -3 -2 -52 -3 -109 l-2 -103 51 2 c63 3 172 39 238 80
113 68 207 199 242 334 16 63 20 124 8 126 -29 4 -196 3 -202 -1z"/>
<path d="M6073 6119 c-199 -37 -321 -237 -258 -424 27 -80 95 -159 165 -190
l36 -16 -1 -262 -1 -262 -28 -61 c-34 -76 -93 -135 -171 -171 l-60 -27 -295
-2 c-162 -2 -301 -3 -308 -3 -10 -1 -12 -26 -10 -108 l3 -108 290 0 c295 -1
341 3 430 31 161 51 301 200 350 374 15 55 18 106 19 332 l1 267 37 17 c50 22
122 97 149 153 34 70 37 180 9 255 -37 96 -139 185 -230 200 -70 12 -86 13
-127 5z m84 -219 c8 0 28 -13 44 -29 47 -48 37 -130 -21 -164 -97 -58 -207 55
-145 149 18 28 72 56 93 49 8 -3 20 -5 29 -5z"/>
<path d="M6485 4255 c-96 -28 -175 -92 -212 -170 -11 -23 -24 -35 -37 -36 -12
0 -508 -1 -1103 -1 -777 -1 -1083 -4 -1084 -12 0 -6 -1 -55 -2 -109 l-2 -97
45 0 c25 0 520 -1 1101 -1 l1057 0 36 -58 c62 -101 150 -153 266 -157 122 -4
218 46 289 149 82 122 59 302 -54 411 -74 73 -208 109 -300 81z m121 -221 c92
-44 76 -181 -23 -200 -125 -23 -177 150 -60 201 41 18 42 18 83 -1z"/>
<path d="M6485 3381 c-83 -21 -161 -82 -209 -164 l-27 -46 -297 0 c-163 0
-314 0 -334 0 l-38 -1 0 -108 0 -109 313 -1 c171 0 324 -1 338 -1 19 -1 30
-10 42 -36 81 -169 310 -230 469 -125 177 118 195 371 37 514 -78 70 -196 101
-294 77z m158 -251 c63 -70 9 -176 -89 -173 -80 2 -125 99 -78 168 38 54 120
57 167 5z"/>
<path d="M4599 2515 c-1 0 -3 -49 -4 -110 l-2 -110 556 1 c306 0 576 -3 600
-8 104 -19 185 -84 234 -187 l30 -64 2 -263 1 -263 -39 -18 c-51 -23 -120 -94
-148 -152 -30 -64 -37 -172 -14 -240 74 -225 363 -297 533 -133 74 72 97 128
97 237 -1 74 -5 99 -24 138 -28 57 -98 128 -149 151 l-38 17 1 252 c1 279 -7
339 -57 443 -53 111 -142 200 -255 254 -111 53 -123 54 -745 55 -318 0 -579 1
-579 0z m1569 -1216 c89 -31 81 -173 -11 -197 -69 -19 -137 30 -137 98 1 84
66 128 148 99z"/>
</g>
</svg>
