<svg width="272" height="55" viewBox="0 0 272 55" fill="none" xmlns="http://www.w3.org/2000/svg">
<path d="M174.262 17.8514H161.096C161.049 16.3052 160.486 15.1807 159.409 14.4779C158.331 13.7751 156.551 13.4471 154.114 13.4471H150.834C147.836 13.4471 145.868 14.0093 144.884 15.087C143.9 16.2115 143.431 18.8353 143.431 23.0522V31.1112C143.431 35.2812 143.9 37.9051 144.884 39.0296C145.868 40.1072 147.836 40.6695 150.834 40.6695H154.489C157.066 40.6695 158.893 40.2946 159.877 39.5918C160.861 38.8422 161.424 37.6239 161.424 35.8435V33.9224H153.927V24.7858H174.262V33.1728C174.262 39.7792 172.809 44.6521 169.904 47.6976C166.999 50.7432 162.407 52.2894 156.129 52.2894H147.18C141.651 52.2894 137.434 50.5557 134.623 47.0417C131.765 43.5276 130.359 38.3736 130.359 31.5329V24.0362C130.359 16.3989 131.858 10.7764 134.857 7.26232C137.856 3.74824 142.635 1.96777 149.101 1.96777H156.223C161.47 1.96777 165.828 3.2797 169.201 5.90354C172.575 8.52738 174.262 11.8072 174.262 15.7898V17.8514ZM78.7256 51.6334L92.8288 2.57688H113.07L126.845 51.6334H112.742L110.54 43.059H95.0778L92.8288 51.6334H78.7256ZM97.4673 33.0791H108.244L103.371 12.7443H102.528L97.4673 33.0791Z" fill="#504338"/>
<path d="M225.568 51.6332L238.499 26.1913L227.348 2.57666H242.154L249.088 19.5848L256.117 2.57666H270.923L259.396 26.1913L272 51.6332H256.96L248.901 32.9383L240.467 51.6332H225.568ZM182.649 51.6332V2.57666H219.523V13.4937H195.815V22.0212H218.82V31.4858H195.815V40.7161H220.039V51.6332H182.649Z" fill="#A9C23D"/>
<path d="M53.8931 16.8677H64.6696V27.5973H53.8931V16.8677Z" fill="#A9C23D"/>
<path d="M64.0605 10.4956H71.1356V17.5706H64.0605V10.4956Z" fill="#A9C23D"/>
<path d="M60.7803 25.4888H71.5568V36.2184H60.7803V25.4888Z" fill="#504338"/>
<path d="M73.5718 1.21826H80.6468V8.29327H73.5718V1.21826Z" fill="#A9C23D"/>
<path d="M51.1753 0H58.2503V7.07501H51.1753V0Z" fill="#504338"/>
<path d="M6.85117 5.15378C6.85117 5.15378 -2.05116 1.96768 3.29024 7.54335C7.17915 11.6197 7.50713 9.32382 4.22733 15.2743C3.10282 17.2891 -3.0351 20.6626 1.88461 24.1766C3.47766 25.3012 7.22601 25.8166 9.38131 24.9263C10.5995 24.4109 14.3947 23.9424 15.1912 24.9263C17.7214 28.1593 23.0628 31.9545 22.6411 36.3588C22.5474 37.3896 29.2944 51.1648 30.9343 54.1634V43.5744H40.7269V33.3132H53.9398V23.9424H43.6318L43.585 12.8847C39.8366 12.6505 34.5421 12.1819 31.1217 11.1511C29.9972 10.7763 22.7817 9.88607 24.937 8.0119C26.0146 7.07481 24.1873 4.77894 21.048 4.77894C15.4724 4.77894 18.3773 -0.609306 12.9891 0.515199C11.8177 0.74947 7.27286 5.52861 6.85117 5.15378Z" fill="#504338"/>
<path d="M41.4297 7.49658H50.1915V16.2583H41.4297V7.49658Z" fill="#A9C23D"/>
<path d="M50.2852 33.3135H60.7805V43.8089H50.2852V33.3135Z" fill="#A9C23D"/>
<path d="M51.4567 43.8091V53.9296H40.6802V43.8091C44.288 43.8091 47.9426 43.8091 51.4567 43.8091Z" fill="#504338"/>
</svg>
